<svg width="32" height="53" viewBox="0 0 32 53" fill="none" xmlns="http://www.w3.org/2000/svg">
<path d="M15.7484 0.608753C15.5853 0.969604 15.4455 1.48833 15.3057 2.14237C15.0494 3.45045 14.9096 5.34492 15.1426 7.48747C15.3756 9.63003 16.0046 12.0658 17.0997 14.3211C17.2395 14.5917 17.3793 14.8624 17.5423 15.133C17.4492 15.1105 17.356 15.0879 17.2395 15.0653C16.7735 14.9526 16.3308 14.8398 15.8649 14.7271C15.3989 14.6143 14.9562 14.5241 14.4902 14.4339C14.2572 14.3888 14.0476 14.3436 13.8146 14.2985C13.5816 14.2534 13.3719 14.2083 13.1622 14.1632C12.3002 13.9828 11.4614 13.8249 10.7159 13.6896C9.97031 13.5543 9.27135 13.419 8.68888 13.3513C7.52395 13.1934 6.7318 13.1709 6.61531 13.3513C6.49882 13.5317 6.8483 14.1858 7.54725 15.1556C7.73364 15.4036 7.92003 15.6517 8.12972 15.9224C8.33941 16.193 8.57239 16.4862 8.85197 16.7794C9.38784 17.3658 9.97031 17.9973 10.646 18.6513C10.8091 18.8092 10.9721 18.9671 11.1585 19.1475C11.3449 19.3053 11.508 19.4632 11.6944 19.6211C12.0672 19.9368 12.44 20.2751 12.8127 20.5909C13.2088 20.9066 13.5816 21.2449 14.001 21.5381C14.4203 21.8313 14.8397 22.1471 15.2591 22.4402C15.3756 22.5305 15.4921 22.5981 15.6086 22.6658C8.4326 23.7032 0.977051 26.0036 0.977051 26.6351C0.977051 27.2666 8.4093 29.4768 15.6086 30.4917C15.4921 30.5819 15.3756 30.6496 15.2591 30.7173C14.8397 31.0105 14.4203 31.3036 14.001 31.6194C13.5816 31.9351 13.2088 32.2509 12.8127 32.5666C12.4167 32.8824 12.0439 33.2207 11.6944 33.5364C11.508 33.6943 11.3216 33.8522 11.1585 34.01C10.9954 34.1679 10.8091 34.3483 10.646 34.5062C9.99361 35.1602 9.38784 35.7917 8.85197 36.3781C8.57239 36.6713 8.33941 36.9645 8.12972 37.2351C7.92003 37.5058 7.71034 37.7764 7.54725 38.0019C6.8483 38.9492 6.49882 39.6258 6.61531 39.8062C6.7318 39.9866 7.52395 39.9641 8.68888 39.8062C9.27135 39.716 9.94701 39.6032 10.7159 39.4679C11.4847 39.3326 12.3002 39.1747 13.1622 38.9943C13.3719 38.9492 13.6049 38.9041 13.8146 38.859C14.0476 38.8139 14.2572 38.7688 14.4902 38.7236C14.9329 38.6334 15.3989 38.5432 15.8649 38.4305C16.3308 38.3177 16.7968 38.2049 17.2395 38.0922C17.3327 38.0922 17.4492 38.0471 17.5423 38.0245C17.4026 38.2951 17.2395 38.5658 17.0997 38.8364C16.0046 41.0917 15.3756 43.5049 15.1426 45.67C14.9096 47.8351 15.0494 49.707 15.3057 51.0151C15.4455 51.6692 15.5853 52.1879 15.7484 52.5488C15.8881 52.8419 16.0279 53.0449 16.1444 53.0449C16.2609 53.0449 16.424 52.887 16.657 52.5713C16.8667 52.2556 17.1463 51.827 17.4725 51.2858C18.1248 50.2258 19.0102 48.7824 20.1052 47.3164C21.2002 45.8505 22.4584 44.3619 23.7864 43.0088C24.4387 42.3322 25.1144 41.7007 25.7668 41.1143C26.4191 40.5053 27.0482 39.9641 27.6306 39.4228C28.3063 38.7913 28.9121 38.25 29.4712 37.7313C35.0862 35.7466 39.0236 31.6645 39.0236 26.5224C39.0236 21.3802 35.226 17.7717 29.4712 15.3134C28.8888 14.7947 28.3063 14.2309 27.6306 13.6219C27.0482 13.0807 26.4191 12.5168 25.7668 11.9305C25.1144 11.3215 24.462 10.69 23.7864 10.036C22.4584 8.70535 21.1769 7.19429 20.1052 5.72833C19.0335 4.26237 18.1248 2.84152 17.4725 1.75896C17.1463 1.21769 16.8667 0.789181 16.657 0.473434C16.4473 0.157688 16.2609 -0.000183105 16.1444 -0.000183105C16.0279 -0.000183105 15.9114 0.202793 15.7484 0.563644V0.608753ZM29.4479 33.1756C28.7956 33.5364 28.1665 33.9198 27.5374 34.3483C25.3707 35.8143 23.4369 37.6185 21.9458 39.4228C21.2002 40.3249 20.5479 41.227 20.012 42.0615C19.7324 42.4675 19.4994 42.8734 19.2664 43.2568C19.0568 43.6402 18.8471 44.0011 18.684 44.3168C17.985 45.6249 17.6588 46.4594 17.5889 46.4368C17.5423 46.4368 17.752 45.5347 18.3112 44.159C18.451 43.8207 18.6374 43.4373 18.8005 43.0313C19.0102 42.6253 19.2198 42.1968 19.4528 41.7683C19.9421 40.8888 20.5479 39.919 21.2701 38.9717C22.7146 37.0322 24.6251 35.07 26.8152 33.4688C27.6539 32.8598 28.516 32.296 29.4013 31.7998V33.2207L29.4479 33.1756ZM21.806 32.5441C20.7809 32.95 19.7557 33.3334 18.8238 33.7168C17.8452 34.1228 16.9366 34.5288 16.0978 34.867C15.6785 35.0249 15.3057 35.2279 14.9329 35.3858C14.5601 35.5436 14.2339 35.7015 13.9311 35.8368C13.3253 36.1075 12.836 36.333 12.4866 36.4683C12.1604 36.6262 11.9507 36.6939 11.9507 36.6713C11.9507 36.6488 12.0905 36.5134 12.3934 36.3105C12.6962 36.1075 13.1622 35.8368 13.7447 35.4985C14.0476 35.3407 14.3504 35.1602 14.6999 34.9573C15.0494 34.7543 15.4222 34.5513 15.8183 34.3483C16.6337 33.9424 17.5191 33.4913 18.4743 33.0177C19.4528 32.5666 20.478 32.1156 21.5497 31.6194C22.0856 31.4164 22.6214 31.1909 23.1573 30.9653C23.4136 30.9653 23.6699 30.9653 23.9262 30.9428C23.2505 31.3939 22.5282 31.9126 21.8293 32.5441H21.806ZM29.4479 27.2441C19.9421 27.0862 8.4792 26.8381 8.4792 26.6126C8.4792 26.387 19.9421 26.1615 29.4479 25.9811V27.2215V27.2441ZM23.1573 22.1245C22.6214 21.899 22.0856 21.696 21.5497 21.4705C20.5013 20.9968 19.4528 20.5232 18.4743 20.0722C17.5191 19.5985 16.6337 19.1475 15.8183 18.7415C15.4222 18.5385 15.0494 18.3356 14.6999 18.1326C14.3504 17.9296 14.0243 17.7492 13.7447 17.5913C13.1622 17.253 12.6962 16.9824 12.3934 16.7794C12.0905 16.5764 11.9274 16.4411 11.9507 16.4185C11.9507 16.396 12.1604 16.4636 12.4866 16.6215C12.836 16.7568 13.3253 16.9824 13.9311 17.253C14.2339 17.3883 14.5601 17.5462 14.9329 17.7041C15.2824 17.8619 15.6785 18.0649 16.0978 18.2228C16.9133 18.5836 17.8452 18.967 18.8238 19.373C19.779 19.7339 20.7809 20.1398 21.806 20.5458C22.5282 21.1773 23.2272 21.696 23.9262 22.1471C23.6699 22.1471 23.4136 22.147 23.1573 22.1245ZM18.684 8.79556C18.8471 9.13386 19.0568 9.47216 19.2664 9.85556C19.4994 10.239 19.7324 10.6449 20.012 11.0509C20.5479 11.8853 21.1769 12.7875 21.9458 13.6896C23.4369 15.4939 25.3707 17.2981 27.5374 18.7641C28.1665 19.1926 28.7956 19.576 29.4479 19.9368V21.3577C28.5626 20.839 27.7005 20.2977 26.8618 19.6888C24.6717 18.0875 22.7379 16.1253 21.3167 14.1858C20.5945 13.216 19.9887 12.2688 19.4994 11.3666C19.2431 10.9381 19.0335 10.487 18.8471 10.1036C18.6607 9.69769 18.4743 9.33683 18.3578 8.97598C17.7753 7.60024 17.5656 6.72067 17.6355 6.69812C17.7054 6.67556 18.0316 7.51003 18.7306 8.81811L18.684 8.79556Z" fill="#4C0A2E"/>
</svg>
